<svg width="81" height="17" viewBox="0 0 81 17" fill="none" xmlns="http://www.w3.org/2000/svg">
<path d="M7.33291 1.73997L12.2129 14.32C12.4129 14.8266 12.6396 15.1666 12.8929 15.34C13.1462 15.5 13.3796 15.5866 13.5929 15.6V16C13.3262 15.9733 12.9996 15.96 12.6129 15.96C12.2262 15.9466 11.8396 15.94 11.4529 15.94C10.9329 15.94 10.4462 15.9466 9.99291 15.96C9.53958 15.96 9.17291 15.9733 8.89291 16V15.6C9.57291 15.5733 10.0062 15.46 10.1929 15.26C10.3796 15.0466 10.3396 14.6 10.0729 13.92L6.35291 3.97997L6.67291 3.71997L3.19291 12.76C2.97958 13.2933 2.85291 13.7466 2.81291 14.12C2.77291 14.48 2.80624 14.7666 2.91291 14.98C3.03291 15.1933 3.22624 15.3466 3.49291 15.44C3.77291 15.5333 4.11958 15.5866 4.53291 15.6V16C4.15958 15.9733 3.76624 15.96 3.35291 15.96C2.95291 15.9466 2.57958 15.94 2.23291 15.94C1.89958 15.94 1.61291 15.9466 1.37291 15.96C1.14624 15.96 0.93291 15.9733 0.73291 16V15.6C0.999576 15.5333 1.27291 15.38 1.55291 15.14C1.83291 14.8866 2.08624 14.46 2.31291 13.86L7.01291 1.73997C7.06624 1.73997 7.11958 1.73997 7.17291 1.73997C7.22624 1.73997 7.27958 1.73997 7.33291 1.73997ZM9.77291 10.24V10.64H3.81291L4.01291 10.24H9.77291ZM19.9906 5.41997C21.0839 5.41997 21.9906 5.8733 22.7106 6.77997C23.4306 7.6733 23.7906 9.0333 23.7906 10.86C23.7906 12.06 23.5839 13.0666 23.1706 13.88C22.7706 14.68 22.2306 15.28 21.5506 15.68C20.8706 16.08 20.1306 16.28 19.3306 16.28C18.6639 16.28 18.0172 16.0933 17.3906 15.72C16.7772 15.3333 16.3172 14.7666 16.0106 14.02L16.4106 14.24C16.7439 14.7733 17.1572 15.1733 17.6506 15.44C18.1439 15.6933 18.6506 15.82 19.1706 15.82C20.0639 15.82 20.7306 15.42 21.1706 14.62C21.6239 13.8066 21.8506 12.5533 21.8506 10.86C21.8506 9.77997 21.7639 8.87997 21.5906 8.15997C21.4172 7.43997 21.1506 6.90663 20.7906 6.55997C20.4306 6.19997 19.9706 6.01997 19.4106 6.01997C18.7972 6.01997 18.2239 6.29997 17.6906 6.85997C17.1706 7.40663 16.8506 8.2133 16.7306 9.27997L16.4906 8.99997C16.6372 7.86663 17.0306 6.98663 17.6706 6.35997C18.3239 5.7333 19.0972 5.41997 19.9906 5.41997ZM16.8706 0.339966V14.96C16.6972 15.1066 16.5172 15.26 16.3306 15.42C16.1572 15.5666 15.9839 15.7133 15.8106 15.86C15.6372 16.0066 15.4572 16.16 15.2706 16.32L14.9306 16.18C14.9839 15.9933 15.0172 15.8066 15.0306 15.62C15.0572 15.42 15.0706 15.22 15.0706 15.02V2.73997C15.0706 2.13997 14.9639 1.69997 14.7506 1.41997C14.5372 1.12663 14.1372 0.979966 13.5506 0.979966V0.559966C13.9772 0.599966 14.3906 0.619966 14.7906 0.619966C15.1772 0.619966 15.5439 0.599966 15.8906 0.559966C16.2506 0.506633 16.5772 0.433299 16.8706 0.339966ZM30.2201 5.41997C31.0734 5.41997 31.8401 5.60663 32.5201 5.97997C33.2001 6.3533 33.7401 6.93997 34.1401 7.73997C34.5534 8.53997 34.7601 9.57997 34.7601 10.86C34.7601 12.14 34.5534 13.18 34.1401 13.98C33.7401 14.7666 33.2001 15.3466 32.5201 15.72C31.8401 16.0933 31.0734 16.28 30.2201 16.28C29.3801 16.28 28.6134 16.0933 27.9201 15.72C27.2401 15.3466 26.6934 14.7666 26.2801 13.98C25.8801 13.18 25.6801 12.14 25.6801 10.86C25.6801 9.57997 25.8801 8.53997 26.2801 7.73997C26.6934 6.93997 27.2401 6.3533 27.9201 5.97997C28.6134 5.60663 29.3801 5.41997 30.2201 5.41997ZM30.2201 5.81997C29.4601 5.81997 28.8334 6.2133 28.3401 6.99997C27.8601 7.78663 27.6201 9.0733 27.6201 10.86C27.6201 12.6466 27.8601 13.9333 28.3401 14.72C28.8334 15.4933 29.4601 15.88 30.2201 15.88C30.9801 15.88 31.6001 15.4933 32.0801 14.72C32.5734 13.9333 32.8201 12.6466 32.8201 10.86C32.8201 9.0733 32.5734 7.78663 32.0801 6.99997C31.6001 6.2133 30.9801 5.81997 30.2201 5.81997ZM45.3571 5.47997V13.84C45.3571 14.44 45.4638 14.8866 45.6771 15.18C45.9038 15.46 46.3038 15.6 46.8771 15.6V16.02C46.4638 15.98 46.0505 15.96 45.6371 15.96C45.2505 15.96 44.8771 15.98 44.5171 16.02C44.1705 16.06 43.8505 16.1333 43.5571 16.24V13.88C43.2238 14.7466 42.7505 15.3666 42.1371 15.74C41.5371 16.1 40.9171 16.28 40.2771 16.28C39.8105 16.28 39.4038 16.2133 39.0571 16.08C38.7105 15.9466 38.4238 15.76 38.1971 15.52C37.9438 15.2533 37.7705 14.9066 37.6771 14.48C37.5838 14.0533 37.5371 13.5266 37.5371 12.9V7.87997C37.5371 7.27997 37.4305 6.83997 37.2171 6.55997C37.0038 6.26663 36.6038 6.11997 36.0171 6.11997V5.69997C36.4438 5.73997 36.8571 5.75997 37.2571 5.75997C37.6438 5.75997 38.0105 5.73997 38.3571 5.69997C38.7171 5.64663 39.0438 5.5733 39.3371 5.47997V13.34C39.3371 13.7533 39.3638 14.1333 39.4171 14.48C39.4705 14.8266 39.6038 15.1066 39.8171 15.32C40.0305 15.5333 40.3771 15.64 40.8571 15.64C41.3771 15.64 41.8371 15.48 42.2371 15.16C42.6505 14.84 42.9705 14.4066 43.1971 13.86C43.4371 13.3133 43.5571 12.7 43.5571 12.02V7.87997C43.5571 7.27997 43.4505 6.83997 43.2371 6.55997C43.0238 6.26663 42.6238 6.11997 42.0371 6.11997V5.69997C42.4638 5.73997 42.8771 5.75997 43.2771 5.75997C43.6638 5.75997 44.0305 5.73997 44.3771 5.69997C44.7371 5.64663 45.0638 5.5733 45.3571 5.47997ZM51.1182 2.37997V5.71997H54.0782V6.11997H51.1182V13.86C51.1182 14.4866 51.2316 14.9266 51.4582 15.18C51.6849 15.4333 51.9982 15.56 52.3982 15.56C52.7982 15.56 53.1449 15.4 53.4382 15.08C53.7316 14.7466 53.9849 14.1933 54.1982 13.42L54.5982 13.52C54.4649 14.2933 54.1982 14.9466 53.7982 15.48C53.4116 16.0133 52.8116 16.28 51.9982 16.28C51.5449 16.28 51.1716 16.22 50.8782 16.1C50.5849 15.9933 50.3249 15.8333 50.0982 15.62C49.8049 15.3133 49.5982 14.9466 49.4782 14.52C49.3716 14.0933 49.3182 13.5266 49.3182 12.82V6.11997H47.3982V5.71997H49.3182V2.65997C49.6516 2.64663 49.9716 2.61997 50.2782 2.57997C50.5849 2.53997 50.8649 2.4733 51.1182 2.37997ZM72.137 1.83997V2.23997C71.6836 2.2533 71.337 2.31997 71.097 2.43997C70.8703 2.55997 70.717 2.7533 70.637 3.01997C70.557 3.28663 70.517 3.66663 70.517 4.15997V10.18C70.517 11.1133 70.457 11.9266 70.337 12.62C70.217 13.3133 70.0036 13.9133 69.697 14.42C69.3636 14.98 68.877 15.4333 68.237 15.78C67.597 16.1133 66.8636 16.28 66.037 16.28C65.397 16.28 64.7836 16.2 64.197 16.04C63.6236 15.8933 63.117 15.6133 62.677 15.2C62.2903 14.8266 61.9836 14.4333 61.757 14.02C61.5436 13.6066 61.397 13.1 61.317 12.5C61.237 11.9 61.197 11.1466 61.197 10.24V3.95997C61.197 3.46663 61.157 3.10663 61.077 2.87997C60.997 2.63997 60.837 2.47997 60.597 2.39997C60.3703 2.30663 60.0303 2.2533 59.577 2.23997V1.83997C59.857 1.8533 60.2236 1.86663 60.677 1.87997C61.1303 1.8933 61.617 1.89997 62.137 1.89997C62.6036 1.89997 63.0636 1.8933 63.517 1.87997C63.9836 1.86663 64.3703 1.8533 64.677 1.83997V2.23997C64.2236 2.2533 63.877 2.30663 63.637 2.39997C63.4103 2.47997 63.257 2.63997 63.177 2.87997C63.097 3.10663 63.057 3.46663 63.057 3.95997V10.58C63.057 11.26 63.0903 11.9066 63.157 12.52C63.2236 13.12 63.357 13.6533 63.557 14.12C63.7703 14.5733 64.0903 14.9333 64.517 15.2C64.9436 15.4533 65.5103 15.58 66.217 15.58C67.2303 15.58 68.0103 15.36 68.557 14.92C69.117 14.4666 69.5036 13.8466 69.717 13.06C69.9436 12.2733 70.057 11.3866 70.057 10.4V4.15997C70.057 3.66663 69.997 3.28663 69.877 3.01997C69.7703 2.7533 69.5836 2.55997 69.317 2.43997C69.0503 2.31997 68.6903 2.2533 68.237 2.23997V1.83997C68.477 1.8533 68.7903 1.86663 69.177 1.87997C69.577 1.8933 69.9436 1.89997 70.277 1.89997C70.6236 1.89997 70.9636 1.8933 71.297 1.87997C71.6436 1.86663 71.9236 1.8533 72.137 1.83997ZM76.3415 5.41997C76.8748 5.41997 77.3282 5.50663 77.7015 5.67997C78.0748 5.8533 78.3482 6.0133 78.5215 6.15997C78.9615 6.51997 79.2282 6.27997 79.3215 5.43997H79.7815C79.7548 5.8133 79.7348 6.25997 79.7215 6.77997C79.7082 7.28663 79.7015 7.9733 79.7015 8.83997H79.2415C79.1615 8.34663 79.0215 7.86663 78.8215 7.39997C78.6348 6.9333 78.3548 6.5533 77.9815 6.25997C77.6082 5.9533 77.1215 5.79997 76.5215 5.79997C76.0548 5.79997 75.6615 5.9333 75.3415 6.19997C75.0348 6.4533 74.8815 6.8333 74.8815 7.33997C74.8815 7.73997 75.0015 8.08663 75.2415 8.37997C75.4815 8.65997 75.7948 8.92663 76.1815 9.17997C76.5682 9.41997 76.9882 9.68663 77.4415 9.97997C77.9482 10.3 78.4082 10.6266 78.8215 10.96C79.2348 11.2933 79.5615 11.66 79.8015 12.06C80.0548 12.46 80.1815 12.9333 80.1815 13.48C80.1815 14.0933 80.0215 14.6066 79.7015 15.02C79.3815 15.4333 78.9615 15.7466 78.4415 15.96C77.9348 16.1733 77.3748 16.28 76.7615 16.28C76.4682 16.28 76.1882 16.2533 75.9215 16.2C75.6682 16.16 75.4215 16.0933 75.1815 16C75.0482 15.9333 74.9082 15.8533 74.7615 15.76C74.6282 15.6666 74.4948 15.5666 74.3615 15.46C74.2282 15.3533 74.1082 15.36 74.0015 15.48C73.8948 15.5866 73.8148 15.8066 73.7615 16.14H73.3015C73.3282 15.7133 73.3482 15.1933 73.3615 14.58C73.3748 13.9666 73.3815 13.1533 73.3815 12.14H73.8415C73.9348 12.8866 74.0682 13.54 74.2415 14.1C74.4148 14.66 74.6882 15.1 75.0615 15.42C75.4348 15.7266 75.9548 15.88 76.6215 15.88C76.8882 15.88 77.1548 15.82 77.4215 15.7C77.7015 15.58 77.9348 15.38 78.1215 15.1C78.3082 14.82 78.4015 14.4466 78.4015 13.98C78.4015 13.3933 78.1882 12.9133 77.7615 12.54C77.3348 12.1666 76.7948 11.7733 76.1415 11.36C75.6615 11.0533 75.2082 10.7466 74.7815 10.44C74.3682 10.1333 74.0282 9.78663 73.7615 9.39997C73.5082 9.0133 73.3815 8.54663 73.3815 7.99997C73.3815 7.39997 73.5148 6.9133 73.7815 6.53997C74.0615 6.1533 74.4282 5.8733 74.8815 5.69997C75.3348 5.5133 75.8215 5.41997 76.3415 5.41997Z" fill="black"/>
</svg>
